<?xml version="1.0" standalone="no"?>
<!DOCTYPE svg PUBLIC "-//W3C//DTD SVG 1.1//EN" "http://www.w3.org/Graphics/SVG/1.1/DTD/svg11.dtd" >
<svg xmlns="http://www.w3.org/2000/svg">
<metadata>
Created by FontForge 20120731 at Thu Mar  3 13:58:38 2016
 By Ads
</metadata>
<defs>
<font id="iconfont" horiz-adv-x="1024" >
  <font-face 
    font-family="iconfont"
    font-weight="500"
    font-stretch="normal"
    units-per-em="1024"
    panose-1="2 0 6 3 0 0 0 0 0 0"
    ascent="896"
    descent="-128"
    x-height="792"
    bbox="0 -224 1024 896"
    underline-thickness="50"
    underline-position="-100"
    unicode-range="U+0078-E611"
  />
<missing-glyph horiz-adv-x="374" 
d="M34 0v682h272v-682h-272zM68 34h204v614h-204v-614z" />
    <glyph glyph-name=".notdef" horiz-adv-x="374" 
d="M34 0v682h272v-682h-272zM68 34h204v614h-204v-614z" />
    <glyph glyph-name=".null" horiz-adv-x="0" 
 />
    <glyph glyph-name="nonmarkingreturn" horiz-adv-x="341" 
 />
    <glyph glyph-name="x" unicode="x" horiz-adv-x="1001" 
d="M281 543q-27 -1 -53 -1h-83q-18 0 -36.5 -6t-32.5 -18.5t-23 -32t-9 -45.5v-76h912v41q0 16 -0.5 30t-0.5 18q0 13 -5 29t-17 29.5t-31.5 22.5t-49.5 9h-133v-97h-438v97zM955 310v-52q0 -23 0.5 -52t0.5 -58t-10.5 -47.5t-26 -30t-33 -16t-31.5 -4.5q-14 -1 -29.5 -0.5
t-29.5 0.5h-32l-45 128h-439l-44 -128h-29h-34q-20 0 -45 1q-25 0 -41 9.5t-25.5 23t-13.5 29.5t-4 30v167h911zM163 247q-12 0 -21 -8.5t-9 -21.5t9 -21.5t21 -8.5q13 0 22 8.5t9 21.5t-9 21.5t-22 8.5zM316 123q-8 -26 -14 -48q-5 -19 -10.5 -37t-7.5 -25t-3 -15t1 -14.5
t9.5 -10.5t21.5 -4h37h67h81h80h64h36q23 0 34 12t2 38q-5 13 -9.5 30.5t-9.5 34.5q-5 19 -11 39h-368zM336 498v228q0 11 2.5 23t10 21.5t20.5 15.5t34 6h188q31 0 51.5 -14.5t20.5 -52.5v-227h-327z" />
    <glyph glyph-name="uniE600" unicode="&#xe600;" 
d="M959 235l-447 320l-449 -317v66l449 316l447 -319v-66z" />
    <glyph glyph-name="uniE601" unicode="&#xe601;" 
d="M131 590h761q4 0 6.5 1t5 2.5t4.5 3.5t3.5 4.5t2.5 5.5t1 6t-1 6.5t-3.5 6.5t-5 5t-6 3t-7.5 1h-761q-10 0 -16.5 -6.5t-6.5 -15.5q0 -4 1.5 -7.5t3.5 -6t4.5 -4.5t6 -3.5t7.5 -1.5zM892 322h-761q-6 0 -11.5 -3t-8.5 -8.5t-3 -11.5q0 -9 6.5 -15.5t16.5 -6.5h761
q3 0 5.5 0.5t5 1.5t4 2.5l3.5 3.5l2 4q2 2 2.5 4.5t0.5 5.5q0 5 -2 9t-5 7t-7 5t-9 2zM892 8h-761q-5 0 -9 -2t-7 -5t-5 -7t-2 -9q0 -9 6.5 -15.5t16.5 -6.5h761q23 0 23 22q0 18 -18 22q-3 1 -5 1z" />
    <glyph glyph-name="uniE602" unicode="&#xe602;" 
d="M825 -153h-626q-48 0 -82.5 34.5t-34.5 83.5v604q0 32 15.5 59t42.5 42.5t59 15.5h20v-43q-38 -1 -57.5 -9t-28 -28.5t-8.5 -59.5v-559q0 -56 19.5 -76t77.5 -20h580q29 0 47 4t29.5 15.5t16 29.5t4.5 47v559q0 57 -19 76.5t-75 20.5v43h20q48 0 82.5 -34.5t34.5 -82.5
v-604q0 -49 -34.5 -83.5t-82.5 -34.5zM719 41h-414q-12 0 -21 6.5t-9 14.5q0 4 1.5 7t4.5 6t6.5 5t8 3t9.5 1h414q12 0 21 -6.5t9 -15.5q0 -15 -21 -20q-5 -1 -9 -1zM719 213h-414q-6 0 -11.5 1.5t-9.5 4.5t-6.5 7t-2.5 8q0 9 9 15.5t21 6.5h414q8 0 15 -3t11 -8t4 -11
q0 -15 -21 -20q-5 -1 -9 -1zM719 385h-414q-12 0 -21 6.5t-9 15t9 15t21 6.5h414q8 0 15 -3t11 -8t4 -11q0 -15 -21 -20q-5 -1 -9 -1zM717 560q-3 0 -6.5 0.5t-6.5 2t-5.5 3.5t-4.5 4.5t-3.5 5.5t-2 6t-0.5 6v136q0 7 4 14t10.5 11t14.5 4t15 -4t11 -11t4 -14v-136
q0 -5 -2.5 -10.5t-6.5 -9.5t-9.5 -6t-11.5 -2zM395 686h234v-43h-234v43zM307 560q-12 0 -21 8t-9 20v136q0 12 9 20.5t21 8.5t20.5 -8.5t8.5 -20.5v-136q0 -3 -1 -7t-3 -7t-4.5 -6t-6 -4.5t-7 -2.5t-7.5 -1z" />
    <glyph glyph-name="uniE603" unicode="&#xe603;" 
d="M633 302h-242q-3 0 -6.5 -1.5t-6 -4t-4 -6t-1.5 -7.5q0 -8 5.5 -13.5t12.5 -5.5h242q7 0 12.5 5.5t5.5 13.5q0 2 -1 4v4q-1 2 -2 3l-4 4q-1 1 -3 2t-4 1.5t-4 0.5zM633 396h-242q-5 0 -9 -2.5t-6.5 -7t-2.5 -9.5q0 -3 1 -6t2.5 -5t4 -4t5 -3t5.5 -1h242q7 0 12.5 5.5
t5.5 13.5t-5.5 13.5t-12.5 5.5zM633 490h-242q-3 0 -6.5 -1.5t-6 -4t-4 -6t-1.5 -7.5q0 -7 5.5 -12.5t12.5 -5.5h242q7 0 12.5 5.5t5.5 12.5q0 6 -2.5 10t-6.5 6.5t-9 2.5zM711 584h-398q-17 0 -28.5 -11t-11.5 -26v-528q0 -21 17 -26.5t31 11.5q3 3 7 8q15 18 24 26
q3 3 7.5 4.5t11.5 0t12 -8.5q20 -29 32.5 -40.5t26.5 -11.5q17 0 33 17q7 8 20 27q5 8 9.5 12t13 2t17.5 -15q19 -27 29 -35t24.5 -8t24 8t28.5 36q4 6 7.5 9.5t6 6.5t6 3t4.5 0.5t4 -2t3.5 -3l4.5 -4.5l4 -5q10 -11 16 -18q2 -3 3.5 -5t2.5 -3q7 -9 15.5 -12t15.5 -0.5
t12 9.5t5 17v528q0 26 -26 35q-7 2 -14 2zM704 56q-8 8 -11 10.5t-8 7t-9.5 5.5t-9.5 1q-15 0 -25 -8.5t-30 -36.5q-7 -11 -10.5 -14.5t-11.5 -1.5t-19 16q-13 17 -23 27t-18 14t-15 4q-24 0 -55 -45q-14 -22 -28 -9q-3 4 -7.5 9.5t-8.5 11.5q-23 33 -52 33q-7 0 -14 -2.5
t-14 -7.5t-15 -13q-3 -2 -6 -5l-7 -7l-1 -2h-1v512h414v-516q-1 1 -7 8t-8 9z" />
    <glyph glyph-name="uniE604" unicode="&#xe604;" 
d="M512 812q-188 0 -332 -122q-136 -116 -171 -292q-9 -49 -9 -98q0 -70 18.5 -136t51.5 -122.5t80 -103.5t103.5 -80t122.5 -51.5t136 -18.5q104 0 199 40.5t163.5 109t109 163.5t40.5 199t-40.5 199t-109 163.5t-163.5 109t-199 40.5zM512 -160q-94 0 -179 36.5t-146.5 98
t-98 146.5t-36.5 179t36.5 179t98 146.5t146.5 98t179 36.5q75 0 145 -23t127 -65.5t99.5 -99.5t65.5 -127t23 -145q0 -63 -16.5 -122.5t-46 -110t-72 -93t-93 -72t-110 -46t-122.5 -16.5zM544 344v292q0 14 -9.5 24.5t-22.5 10.5t-22.5 -10.5t-9.5 -24.5v-292
q-23 -16 -23 -44q0 -7 2 -13l-137 -137q-7 -7 -5.5 -19t11 -21.5t21.5 -11t19 5.5l141 141h3q7 0 14.5 2t13.5 5.5t11 8.5t8.5 11t5.5 13.5t2 14.5q0 28 -23 44z" />
    <glyph glyph-name="uniE605" unicode="&#xe605;" 
d="M384 -165q-15 0 -29 5.5t-25 16.5l-261 261q-22 22 -22 54t22 54l440 440q12 12 30 22t38 16t37 6h231q32 0 54.5 -22.5t22.5 -54.5v-231q0 -17 -6 -37t-16 -38t-22 -30l-440 -440q-7 -7 -15.5 -12t-18.5 -7.5t-20 -2.5zM614 658q-16 0 -37 -8.5t-32 -19.5l-439 -440
q-8 -7 -8 -18t8 -18l260 -261q7 -7 18 -7q3 0 6.5 1t6.5 2.5t5 3.5l440 440q3 3 6 7.5t6 9.5t5.5 10t4.5 11t3.5 11t2.5 10.5t1 9.5v231q0 10 -7.5 17.5t-18.5 7.5h-230h-1zM742 454q-15 0 -29.5 6t-24.5 16t-16 24.5t-6 30t6 29.5t16 24.5t24.5 16.5t30 6t29.5 -6
t24.5 -16.5t16.5 -24.5t6 -30q0 -20 -10 -38t-28 -28t-39 -10zM742 556q-4 0 -8 -1.5t-7 -3.5t-5.5 -5.5t-3.5 -7t-1 -8.5t2 -9.5t5.5 -8t8 -5.5t10 -2t10 2t8 5.5t5.5 8t2 10t-2 10t-5.5 8t-8 5.5t-10.5 2z" />
    <glyph glyph-name="uniE606" unicode="&#xe606;" 
d="M870 574h-399l-132 105h-184q-29 0 -49.5 -21.5t-20.5 -51.5v-311h-2v-69h2v-262q0 -36 25.5 -61.5t61.5 -25.5h697q24 0 44 11.5t32 31.5t12 44v523q0 36 -26 61.5t-62 25.5h1zM922 -36q0 -22 -15.5 -37t-37.5 -15h-697q-22 0 -37 15t-15 37v262h802v-262zM119 260v346
q0 16 10.5 27t25.5 11h172l132 -105h411q21 0 36.5 -15t15.5 -37v-227h-802h-1z" />
    <glyph glyph-name="uniE607" unicode="&#xe607;" 
d="M448 -128l-1 1l-3 3l-440 440l-3 3l-1 1v3l5 5l563 563l5 5h4q5 -2 13 -4.5t13.5 -4.5t12.5 -4.5t14 -4.5q20 -7 58 -20t50 -17l24 -8q18 -6 28 -10q5 -1 3 -6l-2 -6l-2 -6l-2 -6q-1 -3 -2.5 -6.5t-1.5 -5.5q-19 6 -62 20.5t-75 24.5l-61 21q-177 -178 -532 -532
q66 -66 198.5 -198t198.5 -198q4 3 4 4q378 378 524 523q4 4 2 10q-3 8 -41 119q-2 8 -5.5 17.5t-7 20t-5.5 17.5l-1 4q4 2 7 3t7 2t7 2t6.5 2.5t7.5 2.5q22 -67 23 -71l45 -132l1 -1v-2l-1 -2l-4 -2q-290 -291 -565 -565l-4 -5h-2zM733 454q34 13 54 44q23 35 19 75
q-1 10 -3 18.5t-6 17t-9 16.5q-2 2 -2 3.5t0.5 3.5t2.5 3q54 55 221 221l4 5q5 4 4.5 13t-7.5 13q-4 3 -9 3.5t-9 -1.5t-8 -5l-223 -223q-4 -4 -8 -1q-20 12 -41 16.5t-44 0.5q-56 -11 -82 -62q-17 -32 -11 -70q5 -33 26 -58q35 -40 93 -40q16 -1 38 7zM687 483
q-31 2 -54 25.5t-22 58.5q2 31 24.5 53t54.5 22q16 0 30.5 -6t25.5 -16.5t17 -25.5t6 -32q1 -31 -23.5 -55.5t-58.5 -23.5z" />
    <glyph glyph-name="uniE608" unicode="&#xe608;" 
d="M1024 233l-512 538l-512 -538h44l53 55v-501h318v39v304h213v-343h307v486l38 -40h51zM896 315v-489h-228v304v40h-293v-344h-239v504l376 394z" />
    <glyph glyph-name="uniE609" unicode="&#xe609;" 
d="M911 -147l-1 6q-3 89 -57.5 163.5t-145 117.5t-197.5 43t-197.5 -43t-145 -117.5t-57.5 -163.5v-6h-66l1 6q2 59 25 115q25 60 71 110t108 85q63 36 136 53l25 6l-23 11q-71 32 -113 96q-44 66 -44 145q0 111 79 189q15 15 32.5 27.5t36 22t38.5 16t41 10t43 3.5
q54 0 103 -20.5t88 -58.5q79 -78 79 -189q0 -38 -11 -74t-32 -68q-10 -15 -22 -29t-25.5 -26.5t-29 -22.5t-32.5 -18l-23 -12l25 -5q155 -31 255 -136q48 -51 74 -112q24 -57 27 -118v-6h-65zM500 704q-93 0 -159 -65.5t-66 -158.5q0 -60 30 -111.5t82 -81.5t113 -30
q93 0 159 65.5t66 158t-66 158t-159 65.5z" />
    <glyph glyph-name="uniE60A" unicode="&#xe60a;" 
d="M881 749h-585q-33 0 -63 -26.5t-30 -57.5h-56q-32 0 -58.5 -29.5t-26.5 -61.5v-644q0 -32 23 -54.5t55 -22.5h741q32 0 55 22.5t23 54.5v741q0 32 -23 55t-55 23zM903 -63q0 -17 -6 -22.5t-22 -5.5h-476l-1 -6q-10 3 -16.5 4.5t-10.5 1.5h-224q-7 0 -11.5 0.5t-8 2.5
t-5.5 5.5t-3 8t-1 11.5v644q0 16 6 22t23 6h56v-588h56v616q0 12 2 24t9 22t17 10h588q13 -1 19 -4t7.5 -8t1.5 -16v-728zM343 21h476v56h-476v-56zM595 609h-252v-224h252v224zM539 441h-140v112h140v-112zM343 133h476v56h-476v-56zM679 553h140v56h-140v-56zM679 469h140
v56h-140v-56zM679 385h140v56h-140v-56zM343 245h476v56h-476v-56z" />
    <glyph glyph-name="uniE60B" unicode="&#xe60b;" 
d="M512 -224q-104 0 -199 40.5t-163.5 109t-109 163.5t-40.5 199t40.5 199t109 163.5t163.5 109t199 40.5t199 -40.5t163.5 -109t109 -163.5t40.5 -199t-40.5 -199t-109 -163.5t-163.5 -109t-199 -40.5zM512 763q-97 0 -185 -37.5t-151.5 -101t-101 -151.5t-37.5 -185
t37.5 -185t101 -151.5t151.5 -101t185 -37.5t185 37.5t151.5 101t101 151.5t37.5 185q0 49 -9.5 96t-27.5 89t-44 80.5t-58 70.5t-70.5 58t-80.5 44t-89 27.5t-96 9.5zM512 61q-5 0 -9.5 2.5t-7 7.5t-2.5 10v339q0 9 5.5 14.5t13.5 5.5q5 0 9.5 -2.5t7 -7t2.5 -10.5v-339
q0 -8 -5.5 -14t-13.5 -6zM493 535h19v0h19v-38h-38v38z" />
    <glyph glyph-name="uniE60C" unicode="&#xe60c;" 
d="M382 806h-289q-37 0 -62.5 -26t-25.5 -62v-288q0 -36 25.5 -62t62.5 -26l289 -1q36 0 62 26t26 63v288q0 18 -7 34t-19 28t-28 19t-34 7zM381 386h-287q-9 0 -17.5 3.5t-14.5 9.5t-9.5 14t-3.5 17v288q0 12 6 22t16.5 16t22.5 6h287q19 0 32 -13t13 -31v-288
q0 -29 -27 -41q-9 -3 -18 -3zM935 806h-289q-36 0 -61.5 -26t-25.5 -62v-288q0 -36 25.5 -62t61.5 -26l289 -1q37 0 62.5 26t25.5 63v288q0 36 -25.5 62t-62.5 26zM935 386h-288q-18 0 -31 13t-13 31v288q0 18 13 31t31 13h288q18 0 31 -13t13 -31v-288q0 -12 -6 -22
t-16 -16t-22 -6zM382 253h-289q-37 -1 -62.5 -26.5t-25.5 -62.5v-288q0 -36 25.5 -61.5t62.5 -26.5h289q36 0 62 26t26 63v287q0 24 -12 44.5t-32 32.5t-44 12zM381 -168h-287q-19 0 -32 13t-13 32v287q0 19 13 32t32 13h287q19 0 32 -13t13 -32v-287q0 -30 -27 -41
q-9 -4 -18 -4zM935 253h-289q-36 -1 -61.5 -26.5t-25.5 -62.5v-288q0 -36 25.5 -61.5t61.5 -26.5h289q24 0 44.5 12t32 32.5t11.5 44.5v287q0 24 -11.5 44.5t-32 32.5t-44.5 12zM935 -168h-288q-12 0 -22 6t-16 16.5t-6 22.5v287q0 19 13 32t31 13h288q12 0 22 -6t16 -16.5
t6 -22.5v-287q0 -12 -6 -22.5t-16 -16.5t-22 -6z" />
    <glyph glyph-name="uniE60D" unicode="&#xe60d;" 
d="M772 116q-59 59 -137 87q41 20 74 52q81 82 81 197q0 56 -21 106.5t-60 90.5q-82 81 -197 81q-56 0 -106.5 -21t-90.5 -60q-81 -82 -81 -197t81 -197q33 -32 74 -52q-39 -14 -73.5 -36t-63.5 -51q-102 -102 -107 -246h48q6 124 93 212q86 85 207 92h19h4h4h3h4h4
q121 -7 207 -92q87 -88 93 -212h48q-2 70 -29.5 133t-77.5 113zM282 452q0 95 67.5 162.5t162.5 67.5t162.5 -67.5t67.5 -162.5q0 -44 -16.5 -85t-45 -71t-67.5 -49.5t-82 -23.5q-10 1 -19 1t-19 -1q-88 7 -149.5 73t-61.5 156z" />
    <glyph glyph-name="uniE60E" unicode="&#xe60e;" 
d="M713 -131q-3 0 -6 1.5t-6 3.5l-402 402q-2 3 -3.5 6t-1.5 6t1.5 6t3.5 6l402 402q5 5 12 5t12 -5q3 -3 4 -7.5t0 -8.5t-4 -8l-390 -390l390 -390q3 -4 4 -8t0 -8.5t-4 -7.5q-2 -2 -5.5 -3.5t-6.5 -1.5z" />
    <glyph glyph-name="uniE60F" unicode="&#xe60f;" 
d="M311 -131q-2 0 -4 0.5t-4 1.5t-4 3q-5 5 -5 12t5 12l390 390l-390 390q-5 5 -5 12t5 12q3 3 7.5 4.5t9 0t7.5 -4.5l402 -402q2 -2 3 -4.5t1.5 -5t0 -5t-1.5 -5t-3 -4.5l-402 -402q-5 -5 -12 -5z" />
    <glyph glyph-name="uniE610" unicode="&#xe610;" 
d="M724 732q-4 0 -8 -2t-6 -5.5t-2 -8.5q0 -2 0.5 -4t1.5 -3.5t2.5 -3t3.5 -2.5t4 -1.5t4 -0.5q35 0 66.5 -13.5t54.5 -36.5t37 -54.5t14 -66.5v-1q0 -7 4.5 -11.5t11.5 -4.5q2 0 4 0.5t3.5 1.5t3 2.5t2.5 3t1.5 4t0.5 4.5q0 84 -59.5 143.5t-143.5 59.5zM724 607
q-4 0 -8 -2t-6 -6t-2 -8q0 -3 1.5 -6t3.5 -5t5 -3t6 -1q13 0 23.5 -6.5t17 -17.5t6.5 -23q0 -3 0.5 -5.5t2 -4.5t3.5 -3t4.5 -2t4.5 -1q7 0 11.5 4.5t4.5 11.5q0 10 -3 20.5t-8 19t-12 15.5t-15.5 12t-19 8t-20.5 3zM670 389q10 27 9 49t-12 39q-10 14 -28.5 24t-48.5 10
q-43 0 -96 -21q12 57 -17 87q-21 22 -57 22q-29 0 -64.5 -14.5t-72.5 -41t-72 -62.5q-114 -118 -114 -225q0 -50 28 -92.5t74 -70t104 -42.5t118 -15q75 0 141 21t111 54t71 74.5t26 83t-26.5 73.5t-73.5 47zM421 68q-72 0 -138 22t-110.5 66t-44.5 100q0 94 105 203
q19 19 39.5 36t40 30.5t38.5 22.5t36.5 14t32.5 5q22 0 34 -12q10 -10 11.5 -28t-2.5 -31q-4 -18 11 -30q9 -8 20 -8q6 0 12 2q23 10 44.5 14.5t39.5 4.5q37 0 51 -20q13 -20 -1 -59q-4 -13 2 -25t18 -16q38 -12 58 -35.5t20 -54.5q0 -69 -78 -128q-99 -73 -239 -73z" />
    <glyph glyph-name="uniE611" unicode="&#xe611;" 
d="M951 409q0 7 -5.5 12.5t-13 5.5t-12.5 -5.5t-5 -12.5v-37v-58v-233q0 -17 -12.5 -29.5t-29.5 -12.5h-722q-17 0 -29.5 12.5t-12.5 29.5v550q0 17 12.5 29.5t29.5 12.5h722q5 0 12 -2l-372 -337l-230 194q-8 7 -17 7q-2 0 -4 -0.5t-3.5 -1t-3.5 -2t-3 -2.5q-6 -7 -6 -15
q0 -9 6 -15l240 -201l2 -3q2 -3 3 -5q9 -8 20 -5q8 1 13 6q2 2 3 4l4 4l74 68l276 249l26 24l29 26q-11 20 -30 32.5t-42 12.5h-716q-34 0 -57.5 -24.5t-23.5 -59.5v-545q0 -35 23.5 -59.5t57.5 -24.5h716q34 0 57.5 24.5t23.5 59.5v231v1v95zM951 409z" />
  </font>
</defs>
</svg>
